<svg id="Слой_1" data-name="Слой 1" xmlns="http://www.w3.org/2000/svg" viewBox="0 0 1650.13 1905.43"><defs><style>.cls-1{fill:#142833;}.cls-2{fill:#a2583b;}.cls-3{fill:#484924;}.cls-4{fill:#42421f;}.cls-5{fill:#5d6031;}.cls-6{fill:#98a555;}.cls-7{fill:#d8cec3;}.cls-8{fill:#929b4e;}</style></defs><polygon class="cls-1" points="327.04 1604.05 268.9 1570.47 12 1422.14 12 483.29 825.05 13.86 1638.13 483.29 1638.13 1422.14 1400.93 1559.09 1337.51 1595.69 825.05 1891.57 327.04 1604.05"/><path class="cls-2" d="M1000.33,74.71l801.07,462.5v925l-231.2,133.48-63.42,36.61-506.45,292.41-492-284-58.14-33.58-250.9-144.87v-925l801.06-462.5m0-27.71L175.27,523.36v952.71l262.9,151.8,58.14,33.57,504,291,518.45-299.35,63.42-36.6,243.2-140.41V523.36L1000.33,47Z" transform="translate(-175.27 -47)"/><polygon class="cls-2" points="511.6 1304.77 467.21 1304.77 467.21 1539.19 511.6 1539.19 511.6 1304.77 511.6 1304.77"/><path class="cls-3" d="M855.15,1289.91c0-42-38.36-76-85.68-76a95.65,95.65,0,0,0-24.53,3.18c-5.12-41.1-34.94-72.64-71-72.64-27.58,0-51.52,18.49-63.52,45.59a69.78,69.78,0,0,0-35.59-9.77c-40.2,0-72.79,34.25-72.79,76.51a78.23,78.23,0,0,0,21.84,54.62,98,98,0,0,0-7.38,37.63c0,47,32.12,85.19,71.75,85.19,15.11,0,29.13-5.56,40.69-15a143.93,143.93,0,0,0,35.6,4.37c19.3,0,80.21-1.08,96.52-1.08,46.19,0,83.63-25.76,83.63-57.52,0-9.55-3.41-18.56-9.4-26.48C847.7,1325.33,855.15,1308.4,855.15,1289.91Z" transform="translate(-175.27 -47)"/><polygon class="cls-2" points="1220.69 1323.3 1176.29 1323.3 1176.29 1557.72 1220.69 1557.72 1220.69 1323.3 1220.69 1323.3"/><path class="cls-4" d="M1564.24,1308.44c0-42-38.37-76-85.69-76a95.65,95.65,0,0,0-24.53,3.18c-5.11-41.09-34.94-72.63-71-72.63-27.58,0-51.51,18.49-63.52,45.59a69.69,69.69,0,0,0-35.59-9.78c-40.19,0-72.78,34.26-72.78,76.51A78.23,78.23,0,0,0,1233,1330a98,98,0,0,0-7.38,37.63c0,47.05,32.13,85.19,71.75,85.19,15.12,0,29.13-5.56,40.69-15a144,144,0,0,0,35.6,4.37c19.3,0,80.21-1.08,96.53-1.08,46.18,0,83.62-25.75,83.62-57.52,0-9.55-3.4-18.55-9.39-26.48C1556.79,1343.87,1564.24,1326.93,1564.24,1308.44Z" transform="translate(-175.27 -47)"/><path d="M1303.51,380.66" transform="translate(-175.27 -47)"/><path class="cls-5" d="M1215.41,346.55,1077.9,338c-24.74-1.54-48.25,14.48-57.58,39.25L964.67,524.94c-6.7,17.8-2.47,37.59,10.64,49.74l105.77,98.06a63.63,63.63,0,0,0,49.25,16.76l146.24-13.14c17.69-1.59,33.47-13.65,40.62-31.08L1380,492.41c5.06-12.3,1.86-26.27-7.82-34.13l-119.55-97.19A65.59,65.59,0,0,0,1215.41,346.55Z" transform="translate(-175.27 -47)"/><path class="cls-6" d="M1065.63,652.87,971.3,564.06c-8-7.57-10.56-19.82-6.33-30.78l57.19-148.09c7.06-18.31,28.92-24.51,42.52-12.06l72.87,66.7C1159.1,459.54,1166,492,1154.78,521l-46.37,120.09C1101.29,659.5,1079.17,665.61,1065.63,652.87Z" transform="translate(-175.27 -47)"/><path class="cls-6" d="M1280.21,671.37l-131.46,12.48c-21.07,2-35.94-19.66-27.86-40.58L1165,529.08c12.62-32.66,42.91-54.49,75.8-54.63l94.81-.39c20.21-.09,33.25,21.25,25.17,41.2l-55.31,136.61C1301,662.75,1291.24,670.32,1280.21,671.37Z" transform="translate(-175.27 -47)"/><path class="cls-6" d="M1333.39,460.74l-112.91.46a88.07,88.07,0,0,1-59.87-23.12l-83.3-76.22c-7-6.4-1.82-18.9,7.62-18.44l134,6.62a30.1,30.1,0,0,1,17.62,6.8L1340.13,442C1347.44,448,1342.86,460.7,1333.39,460.74Z" transform="translate(-175.27 -47)"/><ellipse class="cls-7" cx="1119.97" cy="482.93" rx="20.89" ry="26.81" transform="translate(-175.44 918.47) rotate(-46.63)"/><ellipse class="cls-7" cx="1054.96" cy="408.01" rx="20.89" ry="26.81" transform="translate(-141.35 847.74) rotate(-46.63)"/><ellipse class="cls-7" cx="1068.74" cy="612.74" rx="21.44" ry="27.14" transform="translate(-285.86 921.9) rotate(-46.63)"/><ellipse class="cls-7" cx="999.66" cy="547.84" rx="21.44" ry="27.14" transform="translate(-260.32 851.35) rotate(-46.63)"/><ellipse class="cls-7" cx="1214.37" cy="403.11" rx="14.52" ry="24" transform="translate(-31.54 1056.78) rotate(-51.57)"/><ellipse class="cls-7" cx="1229.23" cy="370.8" rx="13.31" ry="24" transform="translate(-0.61 1056.19) rotate(-51.57)"/><ellipse class="cls-7" cx="1118.61" cy="368.1" rx="14.52" ry="24" transform="translate(-40.35 968.52) rotate(-51.57)"/><ellipse class="cls-7" cx="1193.51" cy="435.33" rx="14.52" ry="24" transform="translate(-64.67 1052.62) rotate(-51.57)"/><ellipse class="cls-7" cx="1300.48" cy="434.02" rx="14.13" ry="24" transform="translate(-23.16 1135.92) rotate(-51.57)"/><ellipse class="cls-7" cx="1193.14" cy="578.29" rx="24.07" ry="18.05" transform="translate(-3.38 1376.9) rotate(-65.48)"/><ellipse class="cls-7" cx="1219.22" cy="517.33" rx="24.07" ry="18.05" transform="translate(-9.59 1272.93) rotate(-60.29)"/><ellipse class="cls-7" cx="1167.32" cy="645.39" rx="24.07" ry="18.05" transform="translate(-207.32 1182.06) rotate(-54.89)"/><ellipse class="cls-7" cx="1293.09" cy="578.59" rx="24.07" ry="18.05" transform="translate(54.82 1468.01) rotate(-65.48)"/><ellipse class="cls-7" cx="1319.17" cy="517.63" rx="24.07" ry="18.05" transform="translate(40.56 1359.9) rotate(-60.29)"/><ellipse class="cls-7" cx="1267.27" cy="645.69" rx="24.07" ry="18.05" transform="matrix(0.58, -0.82, 0.82, 0.58, -165.11, 1263.95)"/><polygon class="cls-2" points="674.01 1375.02 643.73 1375.02 643.73 1534.91 674.01 1534.91 674.01 1375.02 674.01 1375.02"/><path class="cls-5" d="M933.74,1363c0-25.58-20.39-46.31-45.54-46.31a44.71,44.71,0,0,0-22.26,5.91c-7.52-16.4-22.49-27.59-39.75-27.59-22.54,0-41.2,19.09-44.4,44a62.06,62.06,0,0,0-15.35-1.92c-29.61,0-57.88,21-53.61,46,18.28,107.27,142.18,87.36,167,87.36s44.89-23.08,44.89-51.56a57.7,57.7,0,0,0-4.61-22.78A46.54,46.54,0,0,0,933.74,1363Z" transform="translate(-175.27 -47)"/><polygon class="cls-2" points="1079.03 1338.47 1043.22 1338.47 1043.22 1507.21 1079.03 1507.21 1079.03 1338.47 1079.03 1338.47"/><path class="cls-5" d="M1348.29,1347.72c0-25.6-23.42-46.36-52.3-46.36a58.33,58.33,0,0,0-15,1.94c-3.12-25.08-21.32-44.33-43.31-44.33-16.83,0-31.44,11.28-38.77,27.82a42.53,42.53,0,0,0-21.71-6c-24.54,0-44.42,20.9-44.42,46.69a47.72,47.72,0,0,0,13.32,33.33,59.84,59.84,0,0,0-4.5,23c0,28.71,19.6,52,43.79,52a39,39,0,0,0,24.83-9.18,87.55,87.55,0,0,0,21.72,2.67c11.78,0,49-.66,58.91-.66,28.19,0,51-15.71,51-35.1a26.64,26.64,0,0,0-5.74-16.16A43.14,43.14,0,0,0,1348.29,1347.72Z" transform="translate(-175.27 -47)"/><polygon class="cls-2" points="849.68 1083.71 803.35 1083.71 803.35 1524.32 849.68 1524.32 849.68 1083.71 849.68 1083.71"/><path class="cls-5" d="M1272.43,1145.24c.4-34.73-17.74-71.71-47.52-86.2-13.09-33.71-51.67-58.15-97.24-58.15a124.35,124.35,0,0,0-23.16,2.19c-17-33.46-57.29-57-104.35-57-55.49,0-101.6,32.72-111.11,75.85a110.2,110.2,0,0,0-20.78-2c-49.9,0-90.35,33.07-90.35,73.87,0,.43,0,.85,0,1.27a.94.94,0,0,0,0,.16v117.48c0,.79.83,1.14,1.75,1.43,256.57,81.4,448-.64,450-1.42C1259.14,1201.05,1272.1,1173.91,1272.43,1145.24Z" transform="translate(-175.27 -47)"/><polygon class="cls-2" points="936.45 1184.66 819.74 1353.7 840.59 1369.61 957.3 1200.57 936.45 1184.66 936.45 1184.66"/><polygon class="cls-2" points="734.13 1170 710.43 1183.21 803.57 1367.72 827.26 1354.51 734.13 1170 734.13 1170"/><path class="cls-8" d="M942.2,1142c-2.85-35.78-27.64-64.34-59.05-65.84-30.88-1.48-57.65,23.72-64.17,58.17l-.9-.06c-48.15-2.3-88.35,22.68-89.78,55.8s36.44,61.84,84.59,64.14c17,.81,80.46,5,100.59,6,53.8,2.57,98.58-22.45,100-55.88C1014.74,1175.87,984.33,1150.55,942.2,1142Z" transform="translate(-175.27 -47)"/><path class="cls-6" d="M1214.23,1222.77c10.13-22.72,1.11-49.12-22.22-61.56a57.28,57.28,0,0,0-41.8-4.53c-4.46-11.43-15.75-20.8-30.07-23.48-20.33-3.81-39,7.31-41.8,24.84,0,.25-.06.5-.1.75-19.39-1.67-35.68,3.2-42.94,14.57-12.46,19.54,6.43,50.84,42.2,69.91,12.64,6.74,59.39,32.56,74.34,40.54,40,21.3,82.56,22.59,95.15,2.87C1257.67,1269.94,1243.28,1243.43,1214.23,1222.77Z" transform="translate(-175.27 -47)"/><path class="cls-6" d="M1518.78,1653.08l-518.45,299.35-504-291c101.57-84.29,214.49-143.11,516.15-158.89C1198.42,1492.83,1402.39,1574.5,1518.78,1653.08Z" transform="translate(-175.27 -47)"/><path class="cls-2" d="M1000.33,74.71l801.07,462.5v925l-231.2,133.48-63.42,36.61-506.45,292.41-492-284-58.14-33.58-250.9-144.87v-925l801.06-462.5m0-27.71L175.27,523.36v952.71l262.9,151.8,58.14,33.57,504,291,518.45-299.35,63.42-36.6,243.2-140.41V523.36L1000.33,47Z" transform="translate(-175.27 -47)"/><path class="cls-5" d="M944.35,823.31a40.16,40.16,0,0,0,23.09-42.26L938.57,580.39a24,24,0,0,0-25.21-20.52L700.79,573.06a40.2,40.2,0,0,0-15.12,4l-73.86,36a40.15,40.15,0,0,0-22.19,41.51l25.51,187.76A40.17,40.17,0,0,0,658,877l202.73-15.05a112.87,112.87,0,0,0,55.12-19.24ZM872.3,582.16l-53.17,19.93h0Z" transform="translate(-175.27 -47)"/><path class="cls-6" d="M643.9,620.49l168-15.07a75.53,75.53,0,0,0,17.46-3.63A562.31,562.31,0,0,0,883,580.4a5.59,5.59,0,0,0,3.73-6.16c-1.41-6.73-15.62-5.78-26.52-5.15l-136.16,7.84a140.42,140.42,0,0,0-49.77,12.19l-24.19,11C638.65,605.26,613.42,622.11,643.9,620.49Z" transform="translate(-175.27 -47)"/><path class="cls-6" d="M652.48,623.39l132.68-12.13c29.63-2.71,56.48,15.84,61.24,42.32l25.47,141.83c5.26,29.28-18.4,56.34-51.23,58.62L683.5,863.57c-29.72,2.07-56.08-17.1-60.09-43.71l-21-139.23C598.11,652.23,620.81,626.28,652.48,623.39Z" transform="translate(-175.27 -47)"/><path class="cls-6" d="M870.67,590.88l29.75-13.32c14.6-8.83,31.45,4.69,34.66,27.79l23,165.73c2.23,16.07-3,32-12.8,39.2L921.5,827.65c-14.59,10.65-32.53-2.32-36.13-26.13L860.09,634.19C857.5,617,859.78,597.47,870.67,590.88Z" transform="translate(-175.27 -47)"/><ellipse class="cls-7" cx="677.84" cy="607.64" rx="24.75" ry="6.88" transform="translate(-236.86 29.66) rotate(-6.19)"/><ellipse class="cls-7" cx="715.98" cy="582.65" rx="19.57" ry="4.11" transform="matrix(1, -0.07, 0.07, 1, -213.86, 3.93)"/><ellipse class="cls-7" cx="845.91" cy="575.68" rx="21.01" ry="5.26" transform="translate(-213.07 12.9) rotate(-3.97)"/><ellipse class="cls-7" cx="801.12" cy="599.56" rx="24.75" ry="6.88" transform="translate(-235.27 42.91) rotate(-6.19)"/><ellipse class="cls-7" cx="756.26" cy="592.9" rx="22.19" ry="5.72" transform="translate(-234.81 38.03) rotate(-6.19)"/><ellipse class="cls-7" cx="789.04" cy="661.56" rx="24.04" ry="27.16" transform="translate(-230.44 1204.11) rotate(-74.91)"/><ellipse class="cls-7" cx="736.5" cy="738.36" rx="24.04" ry="27.16" transform="translate(-343.45 1210.18) rotate(-74.91)"/><ellipse class="cls-7" cx="677.89" cy="821.23" rx="24.04" ry="27.16" transform="translate(-466.8 1214.88) rotate(-74.91)"/><ellipse class="cls-7" cx="873.82" cy="630.22" rx="10.89" ry="23.48" transform="translate(-267.54 106.34) rotate(-9.53)"/><ellipse class="cls-7" cx="883.92" cy="702.97" rx="10.89" ry="23.48" transform="translate(-279.44 109.01) rotate(-9.53)"/><ellipse class="cls-7" cx="898.07" cy="779.77" rx="10.89" ry="23.48" transform="translate(-291.96 112.42) rotate(-9.53)"/><ellipse class="cls-7" cx="918.28" cy="605.96" rx="10.89" ry="23.48" transform="translate(-262.91 113.36) rotate(-9.53)"/><ellipse class="cls-7" cx="928.38" cy="678.72" rx="10.89" ry="23.48" transform="matrix(0.99, -0.17, 0.17, 0.99, -274.81, 116.04)"/><ellipse class="cls-7" cx="942.53" cy="755.52" rx="10.89" ry="23.48" transform="translate(-287.33 119.44) rotate(-9.53)"/></svg>